<svg xmlns="http://www.w3.org/2000/svg" viewBox="0 0 45 45" class="design-iconfont">
    <g fill="none" fill-rule="evenodd">
        <path d="M31,30.6666667 C31,32.139426 29.8060927,33.3333333 28.3333333,33.3333333 L11.6666667,33.3333333 C10.1939073,33.3333333 9,32.139426 9,30.6666667 L9,9.33333333 C9,7.860574 10.1939073,6.66666667 11.6666667,6.66666667 L24.3333333,6.66666667 L31,13.3333333 L31,30.6666667 Z" fill="#737FEF"/>
        <path fill="#586EDD" d="M24.3333333 12.3333333L31 19 31 13.3333333z"/>
        <path d="M24.3333333,6.66666667 L31,13.3333333 L25.6666667,13.3333333 C24.930287,13.3333333 24.3333333,12.7363797 24.3333333,12 L24.3333333,6.66666667 L24.3333333,6.66666667 Z" fill="#ACB7FC"/>
        <path d="M23.4386217,15.9166667 L23.511,17.408 L16.8336397,19.6325649 L16.8336397,25.5268512 C16.8336397,25.8148536 16.6782777,26.1516673 16.3766999,26.3969768 C16.1168128,26.6083742 15.748628,26.75 15.2725849,26.75 C14.7362628,26.75 14.3250147,26.6420323 14.0361936,26.4772003 C13.6145143,25.5053201 13.7689424,25.1734809 14.0573717,24.9471521 C14.399502,24.6786844 14.8789549,24.538503 15.3784021,24.538503 C15.8018542,24.538503 16.0716488,24.6520102 16.2252785,24.8047563 L16.2252785,24.8047563 L16.6515446,25.2285706 L16.6515446,18.4564535 C16.6515446,18.1888107 16.6692818,18.0174491 16.7418732,17.906283 C17.2061862,17.6948869 17.5512254,17.58869 18.0326814,17.4403523 C20.3945585,16.7146712 23.0036329,15.9166667 23.4386217,15.9166667 L23.4386217,15.9166667 Z M23.674,20.729 L23.8570213,24.4628855 C23.8138953,24.9720696 23.6728949,25.3684934 23.3968494,25.6305864 C23.1297926,25.8841451 22.7423023,26.0032449 22.232306,26.0032449 C21.7215056,26.0032449 21.3229005,25.891456 21.0424996,25.7175094 C20.7666887,25.5464103 20.6050851,25.3151229 20.6050851,25.0887119 C20.6050851,24.7576432 20.8245466,24.444778 21.1347318,24.2089571 C21.4735168,23.951393 21.9298808,23.7830066 22.4013702,23.7830066 C23.0644028,23.7830066 23.2271503,23.9195029 23.6745127,24.6356733 L23.6745127,24.6356733 L23.674,20.729 Z" stroke="#EBEBEB" stroke-width=".5" fill="#FFF"/>
    </g>
</svg>
