<?xml version="1.0" encoding="UTF-8"?>
<svg width="16px" height="16px" viewBox="0 0 16 16" version="1.1" xmlns="http://www.w3.org/2000/svg" xmlns:xlink="http://www.w3.org/1999/xlink">
    <title>call</title>
    <g id="Quicall" stroke="none" stroke-width="1" fill="none" fill-rule="evenodd">
        <g id="第三方_钉钉" transform="translate(-541.000000, -952.000000)" fill="#979797" fill-rule="nonzero">
            <g id="call" transform="translate(541.000000, 952.000000)">
                <path d="M11.2577376,6.01982856 L10.3436126,4.69757657 C10.1682721,4.44428614 10.1377318,4.11711382 10.2631346,3.83542957 L11.7414802,0.51968257 C11.9282664,0.101149741 12.4034908,-0.102774914 12.8331816,0.05122004 L14.8713741,0.782725374 C15.6254178,1.05324599 16.1091605,1.80674488 15.9788212,2.60071189 C14.7978942,9.79919951 9.78857692,14.6800072 2.64659303,15.9745474 C1.8632448,16.1166257 1.10788892,15.6508024 0.820967413,14.9039015 L0.05905082,12.9200837 C-0.10667163,12.4890763 0.0874338941,12.0025864 0.503429272,11.8063305 L3.95873411,10.1770486 C4.24659025,10.0412837 4.58502788,10.0732824 4.84267982,10.2606241 L6.09577455,11.1715968 C6.37875965,11.3774564 6.75753103,11.3959309 7.05101326,11.205027 C7.87924629,10.6681315 8.6517486,10.0489095 9.3568825,9.35668937 C10.0940388,8.63353378 10.7432755,7.82497102 11.2909785,6.94795619 C11.4689923,6.66116036 11.4497475,6.29694724 11.2577376,6.01982856 Z" id="路径" transform="translate(8.000000, 8.000000) rotate(-270.000000) translate(-8.000000, -8.000000) "></path>
            </g>
        </g>
    </g>
</svg>