<?xml version="1.0" encoding="UTF-8"?>
<svg width="16px" height="16px" viewBox="0 0 16 16" version="1.1" xmlns="http://www.w3.org/2000/svg" xmlns:xlink="http://www.w3.org/1999/xlink">
    <title>call</title>
    <g id="Quicall" stroke="none" stroke-width="1" fill="none" fill-rule="evenodd">
        <g id="第三方_钉钉" transform="translate(-541.000000, -952.000000)" fill="#979797" fill-rule="nonzero">
            <g id="call" transform="translate(541.000000, 952.000000)">
                <path d="M10.9130822,0.836294108 L9.54552439,3.90355758 C9.34422175,4.35573062 9.39318909,4.88030936 9.67463755,5.28687941 L10.5199927,6.50965835 C10.5660174,6.57608409 10.5692074,6.65463155 10.5344974,6.71055247 C10.053844,7.48019928 9.48308295,8.19102803 8.83506352,8.82673971 C8.21137254,9.43900837 7.52828317,9.98655883 6.79594104,10.4612938 C6.73726965,10.4994574 6.65725089,10.496344 6.5916774,10.448642 L5.43241272,9.60588174 C5.0169504,9.3037942 4.47051914,9.2521301 4.00600725,9.47121325 L0.809899582,10.9782758 C0.140380921,11.2941373 -0.17117508,12.0749954 0.0947173856,12.7665228 L0.799408757,14.6013422 C1.16976935,15.5654479 2.15037282,16.1492052 3.1552998,15.9669385 C10.0683473,14.7138949 14.84825,9.9566394 15.9726194,3.10290542 C16.1393182,2.08745314 15.5340363,1.10927078 14.5587569,0.759379709 L12.6732415,0.0826701094 C11.9799233,-0.165805109 11.2135385,0.163060079 10.9130822,0.836294108 Z M12.2683931,1.21231508 L14.1534642,1.88886535 C14.5940309,2.04692302 14.8594851,2.47591736 14.7884588,2.90857624 C13.747105,9.25627856 9.35983099,13.6227657 2.94121191,14.7861903 C2.51612098,14.8632903 2.08751711,14.6081407 1.91961396,14.1710629 L1.21485678,12.3360722 C1.17408124,12.2300239 1.22162046,12.1108756 1.32180138,12.0636128 L4.51785022,10.5565781 C4.58592149,10.5244728 4.66559985,10.5320063 4.72675125,10.5764702 L5.88590624,11.4191507 C6.34872348,11.7558305 6.96942566,11.7799813 7.4494739,11.4677201 C8.24857114,10.9497126 8.99461104,10.3517022 9.67556589,9.68321839 C10.3911375,8.98123757 11.0214644,8.19622521 11.5531908,7.3447929 C11.8448109,6.87497181 11.8206397,6.27981136 11.5067148,5.82673873 L10.6615048,4.60416951 C10.6183629,4.5418481 10.6108308,4.46115806 10.6416592,4.39191031 L12.008993,1.32514927 C12.0540031,1.22429505 12.1667834,1.17589963 12.2683931,1.21231508 Z" id="路径" transform="translate(8.000083, 8.000062) rotate(-270.000000) translate(-8.000083, -8.000062) "></path>
                <path d="M7.84640817,3.16915235 C7.9739882,2.86332564 8.32533378,2.71882815 8.63116049,2.84640817 C10.6696103,3.69677694 12.3000987,5.32729902 13.1504243,7.36576741 C13.2779979,7.67159683 13.1334929,8.02293934 12.8276635,8.15051287 C12.5218341,8.27808639 12.1704916,8.13358144 12.042918,7.82775202 C11.3143164,6.08109008 9.91579854,4.68254333 8.16915235,3.95390466 C7.86332564,3.82632464 7.71882815,3.47497906 7.84640817,3.16915235 Z" id="路径"></path>
            </g>
        </g>
    </g>
</svg>