<svg xmlns="http://www.w3.org/2000/svg" viewBox="0 0 24 24" class="design-iconfont">
  <path d="M13.672217,15.4834108 C13.3555858,15.7997165 12.8131149,16.7086074 12.8131149,16.7086074 C12.8131149,16.7086074 10.6783766,16.1706924 8.76589828,14.2611429 C6.94616398,12.4449882 6.31420332,10.22076 6.31420332,10.22076 L7.54135247,9.36295963 C7.54135247,9.36295963 7.97578475,8.97636372 7.66468568,8.50548469 C7.35326119,8.03460566 4.72226122,4.71014113 4.72226122,4.71014113 C4.72226122,4.71014113 4.17100408,4.08794299 3.61811986,4.46575263 C3.06523563,4.84388769 2.62071542,5.28059789 2.26828833,5.6912747 C2.26828833,5.6912747 0.360040485,9.54584423 6.98586491,16.1606045 C13.6429294,22.8059539 17.4893635,21.0984886 17.5954496,20.9930534 C17.7012103,20.8869673 18.4617108,20.1420868 18.7617457,19.5839959 C19.0614551,19.0255796 18.9270577,18.8911822 18.7005672,18.6653425 C18.4744021,18.4395028 14.531319,15.4830854 14.531319,15.4830854 C14.531319,15.4830854 13.9891736,15.167105 13.672217,15.4834108 Z" fill="#222" fill-rule="evenodd"/>
</svg>
