<?xml version="1.0" encoding="UTF-8"?>
<svg width="24px" height="24px" viewBox="0 0 24 24" version="1.1" xmlns="http://www.w3.org/2000/svg" xmlns:xlink="http://www.w3.org/1999/xlink">
    <title>arrow_up</title>
    <g id="arrow_up" stroke="none" stroke-width="1" fill="none" fill-rule="evenodd">
        <rect id="矩形" x="0" y="0" width="24" height="24"></rect>
        <path d="M16.7958351,9.21895581 C16.5561363,8.96619792 16.182651,8.9322822 15.9107792,9.11716473 L15.8112789,9.19953628 L15.8112789,9.19953628 L12.0016329,13.2184516 L8.20298553,9.21303356 C7.94344838,8.93935647 7.51119283,8.92789378 7.23751574,9.18743093 L7.20579777,9.21948208 C6.93140074,9.50882863 6.93140074,9.96230592 7.20579777,10.2516525 L11.5040002,14.7862002 C11.607815,14.895671 11.7392649,14.9631876 11.8771466,14.9881875 C12.0516322,15.019876 12.2343898,14.9847669 12.385489,14.8820666 L12.4850011,14.7996975 L12.4850011,14.7996975 L12.5246329,14.7564516 L16.7958351,10.2511262 C17.0702321,9.96177965 17.0702321,9.50830236 16.7958351,9.21895581 Z" id="路径" fill="#585C67" transform="translate(12.000816, 11.999726) rotate(-180.000000) translate(-12.000816, -11.999726) "></path>
    </g>
</svg>