<?xml version="1.0" encoding="UTF-8"?>
<svg width="24px" height="24px" viewBox="0 0 24 24" version="1.1" xmlns="http://www.w3.org/2000/svg" xmlns:xlink="http://www.w3.org/1999/xlink">
    <title>hide</title>
    <g id="hide" stroke="none" stroke-width="1" fill="none" fill-rule="evenodd">
        <rect id="矩形" x="0" y="0" width="24" height="24"></rect>
        <path d="M13.346161,13.6936473 C12.9103247,13.7447351 12.4615591,13.7703315 12,13.7703315 C11.5384409,13.7703315 11.0896753,13.7447351 10.653839,13.6936473 L10.3442598,13.6528398 L10.3442598,13.6528398 L10.3244099,13.7538001 L9.67439176,16.1897701 C9.56669332,16.5933746 9.15514884,16.8324598 8.75518144,16.7237821 C8.35521404,16.6151043 8.11828324,16.1998175 8.22598168,15.7962131 L8.22598168,15.7962131 L8.87599978,13.360243 C8.87929667,13.3478878 8.8828783,13.3356867 8.88673561,13.3236451 C8.02325845,13.0597789 7.22119341,12.6754182 6.48192684,12.173475 C6.4471541,12.2544624 6.3955085,12.3303843 6.32899417,12.3970363 L6.32899417,12.3970363 L4.54807696,14.1816391 C4.25300516,14.4773216 3.77705455,14.4786033 3.48501151,14.1845019 C3.19296847,13.8904005 3.19542376,13.4122862 3.49049556,13.1166037 L3.49049556,13.1166037 L5.27141277,11.3320008 C5.2957128,11.3076505 5.32123955,11.2852968 5.34778928,11.2649403 C4.48978801,10.4637252 3.73478595,9.46981038 3.08656596,8.28674666 C2.90156223,7.9490971 3.02283955,7.52403914 3.35744642,7.33735313 C3.69205329,7.15066711 4.1132809,7.27304724 4.29828462,7.61069679 C6.04966686,10.8071375 8.58913263,12.3731451 12,12.3731451 C15.4108674,12.3731451 17.9503331,10.8071375 19.7017154,7.61069679 C19.8867191,7.27304724 20.3079467,7.15066711 20.6425536,7.33735313 C20.9771605,7.52403914 21.0984378,7.9490971 20.913434,8.28674666 C20.265214,9.46981038 19.510212,10.4637252 18.6513021,11.2662687 C18.6782502,11.2852968 18.7037769,11.3076505 18.728077,11.3320008 L20.5089942,13.1166037 C20.804066,13.4122862 20.8065213,13.8904005 20.5144782,14.1845019 C20.2224352,14.4786033 19.7464846,14.4773216 19.4514128,14.1816391 L17.6704956,12.3970363 C17.6039812,12.3303843 17.5523356,12.2544624 17.5155803,12.1734679 C16.7788066,12.6754182 15.9767416,13.0597789 15.1132523,13.3254943 C15.1175132,13.3356867 15.1210949,13.3478878 15.1243918,13.360243 L15.7744099,15.7962131 C15.8821083,16.1998175 15.6451775,16.6151043 15.2452101,16.7237821 C14.8452427,16.8324598 14.4336982,16.5933746 14.3259998,16.1897701 L13.6759817,13.7538001 L13.6561318,13.6528398 L13.6561318,13.6528398 Z" id="形状结合" fill="#585C67"></path>
    </g>
</svg>