<?xml version="1.0" encoding="UTF-8"?>
<svg width="24px" height="24px" viewBox="0 0 24 24" version="1.1" xmlns="http://www.w3.org/2000/svg" xmlns:xlink="http://www.w3.org/1999/xlink">
    <title>logout</title>
    <g id="logout" stroke="none" stroke-width="1" fill="none" fill-rule="evenodd">
        <rect id="矩形" x="0" y="0" width="24" height="24"></rect>
        <path d="M10.25,3 C10.6642136,3 11,3.33578644 11,3.75 C11,4.16421356 10.6642136,4.5 10.25,4.5 L5.501,4.5 L5.5,19.5 L10.25,19.5 C10.6642136,19.5 11,19.8357864 11,20.25 C11,20.6642136 10.6642136,21 10.25,21 L4.75,21 C4.37030423,21 4.05650904,20.7178461 4.00684662,20.3517706 L4,20.25 L4,3.75 L4,3.75 C4,3.33578644 4.33578644,3 4.75,3 L10.25,3 Z M14.802829,7.07781776 L14.8840695,7.13834268 L19.8483177,11.6660112 C20.0280893,11.8299729 20.048064,12.0844882 19.9082415,12.2685729 L19.8483177,12.3339888 L14.8840695,16.8616573 C14.7869489,16.9502366 14.6552252,17 14.5178759,17 C14.2636404,17 14.0521932,16.8329126 14.0083437,16.6125707 L14,16.5276685 L14,13.5 L10,13.5 C9.72385763,13.5 9.5,13.2761424 9.5,13 L9.5,11 C9.5,10.7238576 9.72385763,10.5 10,10.5 L14,10.5 L14,7.47233146 C14,7.37211539 14.0349195,7.27518299 14.0986131,7.19506605 L14.1516823,7.13834268 C14.3286451,6.97694289 14.6018146,6.95676791 14.802829,7.07781776 Z" id="形状结合" fill="#585C67"></path>
    </g>
</svg>