<?xml version="1.0" encoding="UTF-8"?>
<svg width="96px" height="96px" viewBox="0 0 96 96" version="1.1" xmlns="http://www.w3.org/2000/svg" xmlns:xlink="http://www.w3.org/1999/xlink">
    <title>logo</title>
    <defs>
        <path d="M48,16 C30.326888,16 16,30.326888 16,48 C16,65.673112 30.326888,80 48,80 C53.7796196,80 59.2013673,78.4677688 63.8811938,75.7873559 L64.3317512,75.5243896 L78,78 L75.5243896,64.3317512 C78.3673207,59.5507851 80,53.9660589 80,48 C80,30.326888 65.673112,16 48,16 Z" id="path-1"></path>
        <filter x="-18.8%" y="-18.8%" width="137.5%" height="137.5%" filterUnits="objectBoundingBox" id="filter-2">
            <feOffset dx="0" dy="0" in="SourceAlpha" result="shadowOffsetOuter1"></feOffset>
            <feGaussianBlur stdDeviation="4" in="shadowOffsetOuter1" result="shadowBlurOuter1"></feGaussianBlur>
            <feColorMatrix values="0 0 0 0 0   0 0 0 0 0   0 0 0 0 0  0 0 0 0.1 0" type="matrix" in="shadowBlurOuter1"></feColorMatrix>
        </filter>
    </defs>
    <g id="logo" stroke="none" stroke-width="1" fill="none" fill-rule="evenodd">
        <rect id="矩形" x="9.09494702e-13" y="7.95807864e-13" width="96" height="96"></rect>
        <g id="编组" transform="translate(-0.000000, 0.000000)">
            <path d="M48,0 C74.509668,0 96,21.490332 96,48 C96,74.509668 74.509668,96 48,96 C21.490332,96 0,74.509668 0,48 C0,21.490332 21.490332,0 48,0 Z" id="路径" fill="#2F91FF"></path>
            <g id="路径">
                <use fill="black" fill-opacity="1" filter="url(#filter-2)" xlink:href="#path-1"></use>
                <use fill="#FFFFFF" fill-rule="evenodd" xlink:href="#path-1"></use>
            </g>
            <path d="M56.1443439,43.0495714 L53.8590315,39.7439414 C53.4206802,39.1107153 53.3443296,38.2927845 53.6578365,37.5885739 L57.3537005,29.2992064 C57.8206661,28.2528744 59.0087271,27.7430627 60.082954,28.1280501 L65.1784352,29.9568134 C67.0635446,30.633115 68.2729012,32.5168622 67.9470529,34.5017797 C64.9947355,52.4979988 52.4714423,64.7000181 34.6164826,67.9363684 C32.658112,68.2915642 30.7697223,67.1270059 30.0524185,65.2597538 L28.1476271,60.3002092 C27.7333209,59.2226908 28.2185847,58.006466 29.2585732,57.5158263 L37.8968353,53.4426216 C38.6164756,53.1032092 39.4625697,53.1832059 40.1066995,53.6515603 L43.2394364,55.9289919 C43.9468991,56.4436409 44.8938276,56.4898274 45.6275331,56.0125674 C47.6981157,54.6703287 49.6293715,53.1222736 51.3922063,51.3917234 C53.235097,49.5838344 54.8581888,47.5624275 56.2274461,45.3698905 C56.6724807,44.6529009 56.6243688,43.7423681 56.1443439,43.0495714 Z" id="路径" fill="#27CA15" transform="translate(48.000000, 48.000000) rotate(-270.000000) translate(-48.000000, -48.000000) "></path>
        </g>
    </g>
</svg>