<?xml version="1.0" encoding="UTF-8"?>
<svg width="24px" height="24px" viewBox="0 0 24 24" version="1.1" xmlns="http://www.w3.org/2000/svg" xmlns:xlink="http://www.w3.org/1999/xlink">
    <title>security</title>
    <g id="security" stroke="none" stroke-width="1" fill="none" fill-rule="evenodd">
        <rect id="矩形" x="0" y="0" width="24" height="24"></rect>
        <path d="M12,3 L19.5455214,4.88638034 C19.8126216,4.95315539 20,5.19314526 20,5.46846584 L20,13.6912174 L20,13.6912174 C20,14.2413913 19.8664,14.7884348 19.6,15.3323478 C19.3328,15.8778261 18.2791321,17.3325632 16.78,18.5534328 C15.2808679,19.7743023 12.4821567,21 12,21 C11.5178433,21 8.7396107,19.7743023 7.21875739,18.5534328 C5.69790408,17.3325632 4.6936,15.8778261 4.4168,15.3323478 C4.1384,14.7884348 4,14.2413913 4,13.6912174 L4,5.46846584 L4,5.46846584 C4,5.19314526 4.18737842,4.95315539 4.45447862,4.88638034 L12,3 Z M18.5,11.5 L12,11.5020763 L12,19.461 L12.2030329,19.3875183 C12.5223714,19.2659743 12.9243987,19.0899676 13.3456791,18.8853167 C14.3247168,18.4097168 15.2486995,17.8601667 15.8422378,17.3837021 C16.8647321,16.5628917 17.78562,15.4606406 18.1712759,14.7903376 L18.2455661,14.6535727 L18.325092,14.4850423 C18.4207526,14.2631305 18.4752974,14.0519001 18.4932888,13.845348 L18.5,13.6912174 L18.5,11.5 Z M12,4.546 L5.5,6.171 L5.5,11.5 L12,11.5 L12,4.546 Z" id="形状结合" fill="#585C67"></path>
    </g>
</svg>