<svg xmlns="http://www.w3.org/2000/svg" viewBox="0 0 24 24" class="design-iconfont">
  <path d="M16.3156446,14.8489182 C16.3156446,14.8489182 15.7389506,14.5128019 15.4017957,14.8492644 C15.064987,15.1857269 14.4879468,16.1525375 14.4879468,16.1525375 C14.4879468,16.1525375 12.2171708,15.5803435 10.1828185,13.5491067 C8.24712043,11.6172163 7.57488765,9.25124763 7.57488765,9.25124763 L8.88023771,8.33878336 C8.88023771,8.33878336 9.34235448,7.92755135 9.01143041,7.42666524 C8.68016019,6.92577912 5.88149796,3.38946084 5.88149796,3.38946084 C5.88149796,3.38946084 5.29511159,2.7276127 4.70699444,3.12949852 C4.11887729,3.53173049 3.64602972,3.99627035 3.27114398,4.43311781 C3.27114398,4.43311781 1.24129175,8.5333224 8.28935132,15.5696127 C15.3706418,22.6384416 19.4621925,20.8221669 19.575039,20.7100127 C19.6875393,20.5971662 20.4965033,19.8048177 20.8156581,19.2111621 C21.1344667,18.6171603 20.9915048,18.4741983 20.750581,18.2339668 C20.5100033,17.9937354 16.3156446,14.8489182 16.3156446,14.8489182" fill="#27CA15" fill-rule="evenodd"/>
</svg>
