<?xml version="1.0" encoding="UTF-8"?>
<svg width="24px" height="24px" viewBox="0 0 24 24" version="1.1" xmlns="http://www.w3.org/2000/svg" xmlns:xlink="http://www.w3.org/1999/xlink">
    <title>arrow_double_down</title>
    <g id="arrow_double_down" stroke="none" stroke-width="1" fill="none" fill-rule="evenodd">
        <rect id="矩形" x="0" y="0" width="24" height="24"></rect>
        <path d="M16.9107792,11.1171647 C17.182651,10.9322822 17.5561363,10.9661979 17.7958351,11.2189558 C18.0702321,11.5083024 18.0702321,11.9617797 17.7958351,12.2511262 L17.7958351,12.2511262 L12.4573213,16.83088 C12.1951425,17.0557956 11.8080915,17.0558326 11.5458695,16.8309673 L11.5458695,16.8309673 L6.20579777,12.2516525 C5.93140074,11.9623059 5.93140074,11.5088286 6.20579777,11.2194821 L6.20579777,11.2194821 L6.23751574,11.1874309 C6.51119283,10.9278938 6.94344838,10.9393565 7.20298553,11.2130336 L7.20298553,11.2130336 L12.0016329,15.2184516 Z M16.9107792,7.11716473 C17.182651,6.9322822 17.5561363,6.96619792 17.7958351,7.21895581 C18.0702321,7.50830236 18.0702321,7.96177965 17.7958351,8.2511262 L17.7958351,8.2511262 L12.4573213,12.83088 C12.1951425,13.0557956 11.8080915,13.0558326 11.5458695,12.8309673 L11.5458695,12.8309673 L6.20579777,8.25165247 C5.93140074,7.96230592 5.93140074,7.50882863 6.20579777,7.21948208 L6.20579777,7.21948208 L6.23751574,7.18743093 C6.51119283,6.92789378 6.94344838,6.93935647 7.20298553,7.21303356 L7.20298553,7.21303356 L12.0016329,11.2184516 Z" id="形状结合" fill="#585C67"></path>
    </g>
</svg>