<?xml version="1.0" encoding="UTF-8"?>
<svg width="48px" height="48px" viewBox="0 0 48 48" version="1.1" xmlns="http://www.w3.org/2000/svg" xmlns:xlink="http://www.w3.org/1999/xlink">
    <title>end</title>
    <g id="end" stroke="none" stroke-width="1" fill="none" fill-rule="evenodd">
        <rect id="矩形" x="0" y="0" width="48" height="48"></rect>
        <path d="M14.7447656,28.7140176 L14.9284447,28.655082 C15.2590839,28.5335274 15.9204457,28.2130653 15.9211144,27.5942419 C15.9215601,26.7695681 15.4196394,24.8785422 15.4196394,24.8785422 L15.9556212,24.6081542 C17.1532665,24.0448276 20.262816,22.797128 24.3160275,22.7941737 C29.2964536,22.7895097 33.2088495,24.8641263 33.2088495,24.8641263 L32.702917,27.580674 L32.7057197,27.7090334 C32.7270287,27.9995743 32.8669232,28.6950286 33.7085414,28.8586005 L34.0003386,28.9070705 C34.4964653,28.9821362 35.3990149,29.0966672 36.445999,29.2231772 L42.9379088,29.9698962 C42.9379088,29.9698962 44.5453031,30.0623275 44.7851195,28.8496966 C44.9902944,27.8099352 45.027465,26.8178345 44.983651,25.9294659 L44.9553981,25.4941856 C44.9553981,25.4941856 42.2893346,17.9856255 24.1524352,18.0000207 C5.93084234,18.0153053 3.00089151,25.2516594 3,25.5272573 L3.00322001,26.0596722 C3.01569257,26.7893942 3.07331192,28.0628432 3.33253359,28.8827683 C3.66159666,29.9209852 4.0025746,29.9951435 4.54569338,29.9997616 L4.67470337,30 C5.29385775,29.999576 14.7447656,28.7140176 14.7447656,28.7140176 Z" id="路径" fill="red"></path>
    </g>
</svg>