<?xml version="1.0" encoding="UTF-8"?>
<svg width="24px" height="24px" viewBox="0 0 24 24" version="1.1" xmlns="http://www.w3.org/2000/svg" xmlns:xlink="http://www.w3.org/1999/xlink">
    <title>show</title>
    <g id="show" stroke="none" stroke-width="1" fill="none" fill-rule="evenodd">
        <rect id="矩形" x="0" y="0" width="24" height="24"></rect>
        <path d="M12,5 C15.9667675,5 18.9667675,7.33333333 21,12 C18.9667675,16.6666667 15.9667675,19 12,19 C8.03323246,19 5.03323246,16.6666667 3,12 C5.03323246,7.33333333 8.03323246,5 12,5 Z M12,7.5 C9.51471863,7.5 7.5,9.51471863 7.5,12 C7.5,14.4852814 9.51471863,16.5 12,16.5 C14.4852814,16.5 16.5,14.4852814 16.5,12 C16.5,9.51471863 14.4852814,7.5 12,7.5 Z M12,9.5 C13.3807119,9.5 14.5,10.6192881 14.5,12 C14.5,13.3807119 13.3807119,14.5 12,14.5 C10.6192881,14.5 9.5,13.3807119 9.5,12 C9.5,10.6192881 10.6192881,9.5 12,9.5 Z" id="形状结合" fill="#585C67"></path>
    </g>
</svg>